# xmcd
#
# Track frame offsets: 
#        150
#        16033
#        30550
#        50886
#        68679
#        86224
#        100207
#        115315
#        129473
#        138859
#        154621
#        169671
#        183973
#        204231
#
# Disc length: 2932 seconds
#
# Revision: 0
# Processed by: cddbd v1.5.2PL0 Copyright (c) Steve Scherf et al.
# Submitted via: ExactAudioCopyFreeDBPlugin 1.0
#
DISCID=b20b720e
DTITLE=grupe Karcema - Parnes namo
DYEAR=2011
DGENRE=Country
TTITLE0=Parnes namo
TTITLE1=O, mano meile
TTITLE2=Daina Silutei (su V. Adomaitiene)
TTITLE3=Sugalvojau tave
TTITLE4=Sianakt
TTITLE5=Miego brolis
TTITLE6=Stintapukis
TTITLE7=Vejas i bures
TTITLE8=Tykus ramus vakarelis
TTITLE9=Ei, merginos
TTITLE10=Ajajai
TTITLE11=Neiseik
TTITLE12=Daina Silutei (karaoke)
TTITLE13=Parnes namo (karaoke)
EXTD=
EXTT0=
EXTT1=
EXTT2=
EXTT3=
EXTT4=
EXTT5=
EXTT6=
EXTT7=
EXTT8=
EXTT9=
EXTT10=
EXTT11=
EXTT12=
EXTT13=
PLAYORDER=
